<mxfile host="app.diagrams.net" agent="Mozilla/5.0 (Windows NT 10.0; Win64; x64; rv:135.0) Gecko/20100101 Firefox/135.0" version="26.0.16">
  <diagram name="Página-1" id="NVmwE4uOQxQoQZuzEPJn">
    <mxGraphModel dx="6904" dy="3819" grid="1" gridSize="10" guides="1" tooltips="1" connect="1" arrows="1" fold="1" page="1" pageScale="1" pageWidth="827" pageHeight="1169" math="0" shadow="0">
      <root>
        <mxCell id="0" />
        <mxCell id="1" parent="0" />
        <mxCell id="OIUBVP9VXxcAG9u4YlGB-1" value="" style="endArrow=none;html=1;rounded=0;" edge="1" parent="1">
          <mxGeometry width="50" height="50" relative="1" as="geometry">
            <mxPoint x="-831.8181818181819" y="560" as="sourcePoint" />
            <mxPoint x="1640" y="560" as="targetPoint" />
          </mxGeometry>
        </mxCell>
        <mxCell id="OIUBVP9VXxcAG9u4YlGB-2" value="" style="endArrow=none;html=1;rounded=0;" edge="1" parent="1">
          <mxGeometry width="50" height="50" relative="1" as="geometry">
            <mxPoint x="419" y="2118.8888888888887" as="sourcePoint" />
            <mxPoint x="418.75" y="560" as="targetPoint" />
          </mxGeometry>
        </mxCell>
        <mxCell id="OIUBVP9VXxcAG9u4YlGB-3" value="" style="endArrow=none;html=1;rounded=0;" edge="1" parent="1">
          <mxGeometry width="50" height="50" relative="1" as="geometry">
            <mxPoint y="561.8181818181818" as="sourcePoint" />
            <mxPoint y="-960" as="targetPoint" />
          </mxGeometry>
        </mxCell>
        <mxCell id="OIUBVP9VXxcAG9u4YlGB-4" value="" style="endArrow=none;html=1;rounded=0;" edge="1" parent="1">
          <mxGeometry width="50" height="50" relative="1" as="geometry">
            <mxPoint x="837" y="561.8181818181818" as="sourcePoint" />
            <mxPoint x="840" y="-960" as="targetPoint" />
          </mxGeometry>
        </mxCell>
        <mxCell id="OIUBVP9VXxcAG9u4YlGB-5" value="&lt;font style=&quot;font-size: 24px;&quot;&gt;Primer Punto&lt;/font&gt;" style="text;html=1;align=center;verticalAlign=middle;whiteSpace=wrap;rounded=0;" vertex="1" parent="1">
          <mxGeometry x="-817" y="-890" width="807" height="30" as="geometry" />
        </mxCell>
        <mxCell id="OIUBVP9VXxcAG9u4YlGB-6" value="&lt;font style=&quot;font-size: 24px;&quot;&gt;Segundo Punto&lt;/font&gt;" style="text;html=1;align=center;verticalAlign=middle;whiteSpace=wrap;rounded=0;" vertex="1" parent="1">
          <mxGeometry x="10.5" y="-890" width="807" height="30" as="geometry" />
        </mxCell>
        <mxCell id="OIUBVP9VXxcAG9u4YlGB-7" value="&lt;font style=&quot;font-size: 24px;&quot;&gt;Tercer Punto&lt;/font&gt;" style="text;html=1;align=center;verticalAlign=middle;whiteSpace=wrap;rounded=0;" vertex="1" parent="1">
          <mxGeometry x="837.5" y="-890" width="807" height="30" as="geometry" />
        </mxCell>
        <mxCell id="OIUBVP9VXxcAG9u4YlGB-8" value="&lt;font style=&quot;font-size: 24px;&quot;&gt;Cuarto Punto&lt;/font&gt;" style="text;html=1;align=center;verticalAlign=middle;whiteSpace=wrap;rounded=0;" vertex="1" parent="1">
          <mxGeometry x="-590" y="570" width="807" height="30" as="geometry" />
        </mxCell>
        <mxCell id="OIUBVP9VXxcAG9u4YlGB-9" value="&lt;font style=&quot;font-size: 24px;&quot;&gt;Quinto Punto&lt;/font&gt;" style="text;html=1;align=center;verticalAlign=middle;whiteSpace=wrap;rounded=0;" vertex="1" parent="1">
          <mxGeometry x="540" y="570" width="807" height="30" as="geometry" />
        </mxCell>
        <mxCell id="OIUBVP9VXxcAG9u4YlGB-10" value="Requerimientos Funcionales" style="shape=table;startSize=20;container=1;collapsible=0;childLayout=tableLayout;strokeColor=default;fontSize=16;" vertex="1" parent="1">
          <mxGeometry x="40" y="-520" width="760" height="1040" as="geometry" />
        </mxCell>
        <mxCell id="OIUBVP9VXxcAG9u4YlGB-11" value="" style="shape=tableRow;horizontal=0;startSize=0;swimlaneHead=0;swimlaneBody=0;strokeColor=inherit;top=0;left=0;bottom=0;right=0;collapsible=0;dropTarget=0;fillColor=none;points=[[0,0.5],[1,0.5]];portConstraint=eastwest;fontSize=16;" vertex="1" parent="OIUBVP9VXxcAG9u4YlGB-10">
          <mxGeometry y="20" width="760" height="163" as="geometry" />
        </mxCell>
        <mxCell id="OIUBVP9VXxcAG9u4YlGB-13" value="RQF001" style="shape=partialRectangle;html=1;whiteSpace=wrap;connectable=0;strokeColor=inherit;overflow=hidden;fillColor=none;top=0;left=0;bottom=0;right=0;pointerEvents=1;fontSize=16;" vertex="1" parent="OIUBVP9VXxcAG9u4YlGB-11">
          <mxGeometry width="381" height="163" as="geometry">
            <mxRectangle width="381" height="163" as="alternateBounds" />
          </mxGeometry>
        </mxCell>
        <mxCell id="OIUBVP9VXxcAG9u4YlGB-14" value="&lt;div&gt;Nombre: Asignación del modulo Sección&lt;/div&gt;&lt;div&gt;&lt;br&gt;&lt;/div&gt;&lt;div&gt;Descripción: Crea las entidades básicas del sistema Seccion con sus parámetros y operaciones.&lt;/div&gt;&lt;div&gt;&lt;br&gt;&lt;/div&gt;&lt;div&gt;Usuarios: Funcionario&lt;/div&gt;" style="shape=partialRectangle;html=1;whiteSpace=wrap;connectable=0;strokeColor=inherit;overflow=hidden;fillColor=none;top=0;left=0;bottom=0;right=0;pointerEvents=1;fontSize=16;" vertex="1" parent="OIUBVP9VXxcAG9u4YlGB-11">
          <mxGeometry x="381" width="379" height="163" as="geometry">
            <mxRectangle width="379" height="163" as="alternateBounds" />
          </mxGeometry>
        </mxCell>
        <mxCell id="OIUBVP9VXxcAG9u4YlGB-15" value="" style="shape=tableRow;horizontal=0;startSize=0;swimlaneHead=0;swimlaneBody=0;strokeColor=inherit;top=0;left=0;bottom=0;right=0;collapsible=0;dropTarget=0;fillColor=none;points=[[0,0.5],[1,0.5]];portConstraint=eastwest;fontSize=16;" vertex="1" parent="OIUBVP9VXxcAG9u4YlGB-10">
          <mxGeometry y="183" width="760" height="165" as="geometry" />
        </mxCell>
        <mxCell id="OIUBVP9VXxcAG9u4YlGB-17" value="RQF002" style="shape=partialRectangle;html=1;whiteSpace=wrap;connectable=0;strokeColor=inherit;overflow=hidden;fillColor=none;top=0;left=0;bottom=0;right=0;pointerEvents=1;fontSize=16;" vertex="1" parent="OIUBVP9VXxcAG9u4YlGB-15">
          <mxGeometry width="381" height="165" as="geometry">
            <mxRectangle width="381" height="165" as="alternateBounds" />
          </mxGeometry>
        </mxCell>
        <mxCell id="OIUBVP9VXxcAG9u4YlGB-18" value="&lt;br&gt;&lt;div&gt;Nombre:Asignación de Sectores a localidades&lt;/div&gt;&lt;div&gt;&amp;nbsp;&lt;br&gt;&lt;/div&gt;&lt;div&gt;Descripción: La entidad Sector termina formando parte de Localidad.&lt;/div&gt;&lt;div&gt;&lt;br&gt;&lt;/div&gt;&lt;div&gt;Usuarios: Funcionario&lt;/div&gt;&lt;div&gt;&lt;br&gt;&lt;/div&gt;" style="shape=partialRectangle;html=1;whiteSpace=wrap;connectable=0;strokeColor=inherit;overflow=hidden;fillColor=none;top=0;left=0;bottom=0;right=0;pointerEvents=1;fontSize=16;" vertex="1" parent="OIUBVP9VXxcAG9u4YlGB-15">
          <mxGeometry x="381" width="379" height="165" as="geometry">
            <mxRectangle width="379" height="165" as="alternateBounds" />
          </mxGeometry>
        </mxCell>
        <mxCell id="OIUBVP9VXxcAG9u4YlGB-19" value="" style="shape=tableRow;horizontal=0;startSize=0;swimlaneHead=0;swimlaneBody=0;strokeColor=inherit;top=0;left=0;bottom=0;right=0;collapsible=0;dropTarget=0;fillColor=none;points=[[0,0.5],[1,0.5]];portConstraint=eastwest;fontSize=16;" vertex="1" parent="OIUBVP9VXxcAG9u4YlGB-10">
          <mxGeometry y="348" width="760" height="169" as="geometry" />
        </mxCell>
        <mxCell id="OIUBVP9VXxcAG9u4YlGB-21" value="RQF003" style="shape=partialRectangle;html=1;whiteSpace=wrap;connectable=0;strokeColor=inherit;overflow=hidden;fillColor=none;top=0;left=0;bottom=0;right=0;pointerEvents=1;fontSize=16;" vertex="1" parent="OIUBVP9VXxcAG9u4YlGB-19">
          <mxGeometry width="381" height="169" as="geometry">
            <mxRectangle width="381" height="169" as="alternateBounds" />
          </mxGeometry>
        </mxCell>
        <mxCell id="OIUBVP9VXxcAG9u4YlGB-22" value="&lt;br&gt;&lt;div&gt;Nombre: Crear Método para Ver los tiempos de cada Semáforo.&lt;/div&gt;&lt;div&gt;&lt;br&gt;&lt;/div&gt;&lt;div&gt;Descripción: Asignar un método en la Entidad Semáforo para ver su su valores internos de tiempo.&lt;/div&gt;&lt;div&gt;.&lt;/div&gt;&lt;div&gt;Usuarios: Funcionario&lt;/div&gt;&lt;div&gt;&lt;br&gt;&lt;/div&gt;" style="shape=partialRectangle;html=1;whiteSpace=wrap;connectable=0;strokeColor=inherit;overflow=hidden;fillColor=none;top=0;left=0;bottom=0;right=0;pointerEvents=1;fontSize=16;" vertex="1" parent="OIUBVP9VXxcAG9u4YlGB-19">
          <mxGeometry x="381" width="379" height="169" as="geometry">
            <mxRectangle width="379" height="169" as="alternateBounds" />
          </mxGeometry>
        </mxCell>
        <mxCell id="OIUBVP9VXxcAG9u4YlGB-23" style="shape=tableRow;horizontal=0;startSize=0;swimlaneHead=0;swimlaneBody=0;strokeColor=inherit;top=0;left=0;bottom=0;right=0;collapsible=0;dropTarget=0;fillColor=none;points=[[0,0.5],[1,0.5]];portConstraint=eastwest;fontSize=16;" vertex="1" parent="OIUBVP9VXxcAG9u4YlGB-10">
          <mxGeometry y="517" width="760" height="174" as="geometry" />
        </mxCell>
        <mxCell id="OIUBVP9VXxcAG9u4YlGB-24" value="RQF004" style="shape=partialRectangle;html=1;whiteSpace=wrap;connectable=0;strokeColor=inherit;overflow=hidden;fillColor=none;top=0;left=0;bottom=0;right=0;pointerEvents=1;fontSize=16;" vertex="1" parent="OIUBVP9VXxcAG9u4YlGB-23">
          <mxGeometry width="381" height="174" as="geometry">
            <mxRectangle width="381" height="174" as="alternateBounds" />
          </mxGeometry>
        </mxCell>
        <mxCell id="OIUBVP9VXxcAG9u4YlGB-25" value="&lt;br&gt;&lt;div&gt;Nombre: Inventar un Método que registre la cantidad de lluvia que hay en una sección.&lt;/div&gt;&lt;div&gt;&lt;br&gt;&lt;/div&gt;&lt;div&gt;Descripción: Crea un método en Sección que recoje toda la información de la cantidad de lluvia presente en la sección.&lt;/div&gt;&lt;div&gt;&lt;br&gt;&lt;/div&gt;&lt;div&gt;Usuarios: Funcionario&lt;/div&gt;&lt;div&gt;&lt;br&gt;&lt;/div&gt;" style="shape=partialRectangle;html=1;whiteSpace=wrap;connectable=0;strokeColor=inherit;overflow=hidden;fillColor=none;top=0;left=0;bottom=0;right=0;pointerEvents=1;fontSize=16;" vertex="1" parent="OIUBVP9VXxcAG9u4YlGB-23">
          <mxGeometry x="381" width="379" height="174" as="geometry">
            <mxRectangle width="379" height="174" as="alternateBounds" />
          </mxGeometry>
        </mxCell>
        <mxCell id="OIUBVP9VXxcAG9u4YlGB-26" style="shape=tableRow;horizontal=0;startSize=0;swimlaneHead=0;swimlaneBody=0;strokeColor=inherit;top=0;left=0;bottom=0;right=0;collapsible=0;dropTarget=0;fillColor=none;points=[[0,0.5],[1,0.5]];portConstraint=eastwest;fontSize=16;" vertex="1" parent="OIUBVP9VXxcAG9u4YlGB-10">
          <mxGeometry y="691" width="760" height="175" as="geometry" />
        </mxCell>
        <mxCell id="OIUBVP9VXxcAG9u4YlGB-27" value="RQF005" style="shape=partialRectangle;html=1;whiteSpace=wrap;connectable=0;strokeColor=inherit;overflow=hidden;fillColor=none;top=0;left=0;bottom=0;right=0;pointerEvents=1;fontSize=16;" vertex="1" parent="OIUBVP9VXxcAG9u4YlGB-26">
          <mxGeometry width="381" height="175" as="geometry">
            <mxRectangle width="381" height="175" as="alternateBounds" />
          </mxGeometry>
        </mxCell>
        <mxCell id="OIUBVP9VXxcAG9u4YlGB-28" value="&lt;br&gt;&lt;div&gt;Nombre: Asignar un método que determine el consumo energético de un barrio. &lt;br&gt;&lt;/div&gt;&lt;div&gt;&lt;br&gt;&lt;/div&gt;&lt;div&gt;Descripción: Asigna un método en Sección que recoje toda la información de la cantidad de energía gastada presente en la sección.&lt;/div&gt;&lt;div&gt;&lt;br&gt;&lt;/div&gt;&lt;div&gt;Usuarios: Funcionario&lt;/div&gt;&lt;div&gt;&lt;br&gt;&lt;/div&gt;" style="shape=partialRectangle;html=1;whiteSpace=wrap;connectable=0;strokeColor=inherit;overflow=hidden;fillColor=none;top=0;left=0;bottom=0;right=0;pointerEvents=1;fontSize=16;" vertex="1" parent="OIUBVP9VXxcAG9u4YlGB-26">
          <mxGeometry x="381" width="379" height="175" as="geometry">
            <mxRectangle width="379" height="175" as="alternateBounds" />
          </mxGeometry>
        </mxCell>
        <mxCell id="OIUBVP9VXxcAG9u4YlGB-30" style="shape=tableRow;horizontal=0;startSize=0;swimlaneHead=0;swimlaneBody=0;strokeColor=inherit;top=0;left=0;bottom=0;right=0;collapsible=0;dropTarget=0;fillColor=none;points=[[0,0.5],[1,0.5]];portConstraint=eastwest;fontSize=16;" vertex="1" parent="OIUBVP9VXxcAG9u4YlGB-10">
          <mxGeometry y="866" width="760" height="174" as="geometry" />
        </mxCell>
        <mxCell id="OIUBVP9VXxcAG9u4YlGB-31" value="&lt;div&gt;RQF006&lt;/div&gt;&lt;div&gt;(Extra)&lt;/div&gt;" style="shape=partialRectangle;html=1;whiteSpace=wrap;connectable=0;strokeColor=inherit;overflow=hidden;fillColor=none;top=0;left=0;bottom=0;right=0;pointerEvents=1;fontSize=16;" vertex="1" parent="OIUBVP9VXxcAG9u4YlGB-30">
          <mxGeometry width="381" height="174" as="geometry">
            <mxRectangle width="381" height="174" as="alternateBounds" />
          </mxGeometry>
        </mxCell>
        <mxCell id="OIUBVP9VXxcAG9u4YlGB-32" value="&lt;br&gt;&lt;div&gt;Nombre: Implementar Método que localice un Vehículo según su placa.&lt;/div&gt;&lt;div&gt;&lt;br&gt;&lt;/div&gt;&lt;div&gt;Descripción: Es un Método de Vehículo que devuelve su ubicación actual en tiempo real.&lt;/div&gt;&lt;div&gt;&lt;br&gt;&lt;/div&gt;&lt;div&gt;Usuarios: Funcionario.&lt;/div&gt;&lt;div&gt;&lt;br&gt;&lt;/div&gt;" style="shape=partialRectangle;html=1;whiteSpace=wrap;connectable=0;strokeColor=inherit;overflow=hidden;fillColor=none;top=0;left=0;bottom=0;right=0;pointerEvents=1;fontSize=16;" vertex="1" parent="OIUBVP9VXxcAG9u4YlGB-30">
          <mxGeometry x="381" width="379" height="174" as="geometry">
            <mxRectangle width="379" height="174" as="alternateBounds" />
          </mxGeometry>
        </mxCell>
        <mxCell id="OIUBVP9VXxcAG9u4YlGB-33" value="Ejemplos de las Historias de Usuario" style="shape=table;startSize=30;container=1;collapsible=0;childLayout=tableLayout;strokeColor=default;fontSize=16;" vertex="1" parent="1">
          <mxGeometry x="881" y="-118" width="720" height="640" as="geometry" />
        </mxCell>
        <mxCell id="OIUBVP9VXxcAG9u4YlGB-34" value="" style="shape=tableRow;horizontal=0;startSize=0;swimlaneHead=0;swimlaneBody=0;strokeColor=inherit;top=0;left=0;bottom=0;right=0;collapsible=0;dropTarget=0;fillColor=none;points=[[0,0.5],[1,0.5]];portConstraint=eastwest;fontSize=16;" vertex="1" parent="OIUBVP9VXxcAG9u4YlGB-33">
          <mxGeometry y="30" width="720" height="203" as="geometry" />
        </mxCell>
        <mxCell id="OIUBVP9VXxcAG9u4YlGB-35" value="HU001" style="shape=partialRectangle;html=1;whiteSpace=wrap;connectable=0;strokeColor=inherit;overflow=hidden;fillColor=none;top=0;left=0;bottom=0;right=0;pointerEvents=1;fontSize=16;" vertex="1" parent="OIUBVP9VXxcAG9u4YlGB-34">
          <mxGeometry width="360" height="203" as="geometry">
            <mxRectangle width="360" height="203" as="alternateBounds" />
          </mxGeometry>
        </mxCell>
        <mxCell id="OIUBVP9VXxcAG9u4YlGB-36" value="Se divide un sector en dos por razones logísticas y estos deben ser agregados a 2 localidades diferentes. " style="shape=partialRectangle;html=1;whiteSpace=wrap;connectable=0;strokeColor=inherit;overflow=hidden;fillColor=none;top=0;left=0;bottom=0;right=0;pointerEvents=1;fontSize=16;" vertex="1" parent="OIUBVP9VXxcAG9u4YlGB-34">
          <mxGeometry x="360" width="360" height="203" as="geometry">
            <mxRectangle width="360" height="203" as="alternateBounds" />
          </mxGeometry>
        </mxCell>
        <mxCell id="OIUBVP9VXxcAG9u4YlGB-38" value="" style="shape=tableRow;horizontal=0;startSize=0;swimlaneHead=0;swimlaneBody=0;strokeColor=inherit;top=0;left=0;bottom=0;right=0;collapsible=0;dropTarget=0;fillColor=none;points=[[0,0.5],[1,0.5]];portConstraint=eastwest;fontSize=16;" vertex="1" parent="OIUBVP9VXxcAG9u4YlGB-33">
          <mxGeometry y="233" width="720" height="204" as="geometry" />
        </mxCell>
        <mxCell id="OIUBVP9VXxcAG9u4YlGB-39" value="HU002" style="shape=partialRectangle;html=1;whiteSpace=wrap;connectable=0;strokeColor=inherit;overflow=hidden;fillColor=none;top=0;left=0;bottom=0;right=0;pointerEvents=1;fontSize=16;" vertex="1" parent="OIUBVP9VXxcAG9u4YlGB-38">
          <mxGeometry width="360" height="204" as="geometry">
            <mxRectangle width="360" height="204" as="alternateBounds" />
          </mxGeometry>
        </mxCell>
        <mxCell id="OIUBVP9VXxcAG9u4YlGB-40" value="El 24 de Diciembre se quiso saber cuanta energia consumieron los habitantes de Niza Norte." style="shape=partialRectangle;html=1;whiteSpace=wrap;connectable=0;strokeColor=inherit;overflow=hidden;fillColor=none;top=0;left=0;bottom=0;right=0;pointerEvents=1;fontSize=16;" vertex="1" parent="OIUBVP9VXxcAG9u4YlGB-38">
          <mxGeometry x="360" width="360" height="204" as="geometry">
            <mxRectangle width="360" height="204" as="alternateBounds" />
          </mxGeometry>
        </mxCell>
        <mxCell id="OIUBVP9VXxcAG9u4YlGB-42" value="" style="shape=tableRow;horizontal=0;startSize=0;swimlaneHead=0;swimlaneBody=0;strokeColor=inherit;top=0;left=0;bottom=0;right=0;collapsible=0;dropTarget=0;fillColor=none;points=[[0,0.5],[1,0.5]];portConstraint=eastwest;fontSize=16;" vertex="1" parent="OIUBVP9VXxcAG9u4YlGB-33">
          <mxGeometry y="437" width="720" height="203" as="geometry" />
        </mxCell>
        <mxCell id="OIUBVP9VXxcAG9u4YlGB-43" value="HU003" style="shape=partialRectangle;html=1;whiteSpace=wrap;connectable=0;strokeColor=inherit;overflow=hidden;fillColor=none;top=0;left=0;bottom=0;right=0;pointerEvents=1;fontSize=16;" vertex="1" parent="OIUBVP9VXxcAG9u4YlGB-42">
          <mxGeometry width="360" height="203" as="geometry">
            <mxRectangle width="360" height="203" as="alternateBounds" />
          </mxGeometry>
        </mxCell>
        <mxCell id="OIUBVP9VXxcAG9u4YlGB-44" value="Se roban un carro y quieren localizarlo." style="shape=partialRectangle;html=1;whiteSpace=wrap;connectable=0;strokeColor=inherit;overflow=hidden;fillColor=none;top=0;left=0;bottom=0;right=0;pointerEvents=1;fontSize=16;" vertex="1" parent="OIUBVP9VXxcAG9u4YlGB-42">
          <mxGeometry x="360" width="360" height="203" as="geometry">
            <mxRectangle width="360" height="203" as="alternateBounds" />
          </mxGeometry>
        </mxCell>
        <mxCell id="OIUBVP9VXxcAG9u4YlGB-46" value="Historias de Usuario" style="shape=table;startSize=30;container=1;collapsible=0;childLayout=tableLayout;strokeColor=default;fontSize=16;" vertex="1" parent="1">
          <mxGeometry x="881" y="-800" width="720" height="640" as="geometry" />
        </mxCell>
        <mxCell id="OIUBVP9VXxcAG9u4YlGB-47" value="" style="shape=tableRow;horizontal=0;startSize=0;swimlaneHead=0;swimlaneBody=0;strokeColor=inherit;top=0;left=0;bottom=0;right=0;collapsible=0;dropTarget=0;fillColor=none;points=[[0,0.5],[1,0.5]];portConstraint=eastwest;fontSize=16;" vertex="1" parent="OIUBVP9VXxcAG9u4YlGB-46">
          <mxGeometry y="30" width="720" height="203" as="geometry" />
        </mxCell>
        <mxCell id="OIUBVP9VXxcAG9u4YlGB-48" value="HU001" style="shape=partialRectangle;html=1;whiteSpace=wrap;connectable=0;strokeColor=inherit;overflow=hidden;fillColor=none;top=0;left=0;bottom=0;right=0;pointerEvents=1;fontSize=16;" vertex="1" parent="OIUBVP9VXxcAG9u4YlGB-47">
          <mxGeometry width="360" height="203" as="geometry">
            <mxRectangle width="360" height="203" as="alternateBounds" />
          </mxGeometry>
        </mxCell>
        <mxCell id="OIUBVP9VXxcAG9u4YlGB-49" value="&lt;div&gt;Nombre:Asignación de Sectores a Localidades&lt;/div&gt;&lt;div&gt;Descripción:&amp;nbsp;Los Sectores son un tipo de entidad compuesta por un conjunto de &lt;br&gt;barrios, las Localidades son el mismo concepto pero con sectores; en &lt;br&gt;este caso la información de un sector pasa a formar parte de una &lt;br&gt;localidad.&amp;nbsp; &lt;br&gt;&lt;/div&gt;&lt;div&gt;Criterios de Aceptación:&lt;/div&gt;&lt;div&gt;&lt;br&gt;&lt;/div&gt;" style="shape=partialRectangle;html=1;whiteSpace=wrap;connectable=0;strokeColor=inherit;overflow=hidden;fillColor=none;top=0;left=0;bottom=0;right=0;pointerEvents=1;fontSize=16;" vertex="1" parent="OIUBVP9VXxcAG9u4YlGB-47">
          <mxGeometry x="360" width="360" height="203" as="geometry">
            <mxRectangle width="360" height="203" as="alternateBounds" />
          </mxGeometry>
        </mxCell>
        <mxCell id="OIUBVP9VXxcAG9u4YlGB-50" value="" style="shape=tableRow;horizontal=0;startSize=0;swimlaneHead=0;swimlaneBody=0;strokeColor=inherit;top=0;left=0;bottom=0;right=0;collapsible=0;dropTarget=0;fillColor=none;points=[[0,0.5],[1,0.5]];portConstraint=eastwest;fontSize=16;" vertex="1" parent="OIUBVP9VXxcAG9u4YlGB-46">
          <mxGeometry y="233" width="720" height="204" as="geometry" />
        </mxCell>
        <mxCell id="OIUBVP9VXxcAG9u4YlGB-51" value="HU002" style="shape=partialRectangle;html=1;whiteSpace=wrap;connectable=0;strokeColor=inherit;overflow=hidden;fillColor=none;top=0;left=0;bottom=0;right=0;pointerEvents=1;fontSize=16;" vertex="1" parent="OIUBVP9VXxcAG9u4YlGB-50">
          <mxGeometry width="360" height="204" as="geometry">
            <mxRectangle width="360" height="204" as="alternateBounds" />
          </mxGeometry>
        </mxCell>
        <mxCell id="OIUBVP9VXxcAG9u4YlGB-52" value="&lt;div&gt;Nombre: Asignar un método que determine el consumo energético de un barrio. &lt;br&gt;&lt;/div&gt;&lt;div&gt;Descripción: Este Método suma todo el consumo energético de cada sección que esta presente en un barrio y devuelve el total.&lt;/div&gt;&lt;div&gt;Criterios de Aceptación:&lt;/div&gt;" style="shape=partialRectangle;html=1;whiteSpace=wrap;connectable=0;strokeColor=inherit;overflow=hidden;fillColor=none;top=0;left=0;bottom=0;right=0;pointerEvents=1;fontSize=16;" vertex="1" parent="OIUBVP9VXxcAG9u4YlGB-50">
          <mxGeometry x="360" width="360" height="204" as="geometry">
            <mxRectangle width="360" height="204" as="alternateBounds" />
          </mxGeometry>
        </mxCell>
        <mxCell id="OIUBVP9VXxcAG9u4YlGB-53" value="" style="shape=tableRow;horizontal=0;startSize=0;swimlaneHead=0;swimlaneBody=0;strokeColor=inherit;top=0;left=0;bottom=0;right=0;collapsible=0;dropTarget=0;fillColor=none;points=[[0,0.5],[1,0.5]];portConstraint=eastwest;fontSize=16;" vertex="1" parent="OIUBVP9VXxcAG9u4YlGB-46">
          <mxGeometry y="437" width="720" height="203" as="geometry" />
        </mxCell>
        <mxCell id="OIUBVP9VXxcAG9u4YlGB-54" value="HU003" style="shape=partialRectangle;html=1;whiteSpace=wrap;connectable=0;strokeColor=inherit;overflow=hidden;fillColor=none;top=0;left=0;bottom=0;right=0;pointerEvents=1;fontSize=16;" vertex="1" parent="OIUBVP9VXxcAG9u4YlGB-53">
          <mxGeometry width="360" height="203" as="geometry">
            <mxRectangle width="360" height="203" as="alternateBounds" />
          </mxGeometry>
        </mxCell>
        <mxCell id="OIUBVP9VXxcAG9u4YlGB-55" value="&lt;br&gt;&lt;div&gt;Nombre: Implementar Método que localice un Vehículo según su placa.&lt;/div&gt;&lt;div&gt;Descripción: Basicamente accede e imprime el atributo de Localización de un vehiculo que es actualizado cada 5 segundos.&lt;/div&gt;&lt;div&gt;Criterios de Aceptación:&lt;/div&gt;&lt;div&gt;&lt;br&gt;&lt;/div&gt;" style="shape=partialRectangle;html=1;whiteSpace=wrap;connectable=0;strokeColor=inherit;overflow=hidden;fillColor=none;top=0;left=0;bottom=0;right=0;pointerEvents=1;fontSize=16;" vertex="1" parent="OIUBVP9VXxcAG9u4YlGB-53">
          <mxGeometry x="360" width="360" height="203" as="geometry">
            <mxRectangle width="360" height="203" as="alternateBounds" />
          </mxGeometry>
        </mxCell>
        <mxCell id="OIUBVP9VXxcAG9u4YlGB-56" value="&#xa;Altos Responsables de cada Secretaria&#xa;&#xa;" style="shape=table;startSize=30;container=1;collapsible=0;childLayout=tableLayout;strokeColor=default;fontSize=16;" vertex="1" parent="1">
          <mxGeometry x="-790" y="-520" width="750" height="1040" as="geometry" />
        </mxCell>
        <mxCell id="OIUBVP9VXxcAG9u4YlGB-57" value="" style="shape=tableRow;horizontal=0;startSize=0;swimlaneHead=0;swimlaneBody=0;strokeColor=inherit;top=0;left=0;bottom=0;right=0;collapsible=0;dropTarget=0;fillColor=none;points=[[0,0.5],[1,0.5]];portConstraint=eastwest;fontSize=16;" vertex="1" parent="OIUBVP9VXxcAG9u4YlGB-56">
          <mxGeometry y="30" width="750" height="505" as="geometry" />
        </mxCell>
        <mxCell id="OIUBVP9VXxcAG9u4YlGB-58" value="" style="shape=partialRectangle;html=1;whiteSpace=wrap;connectable=0;strokeColor=inherit;overflow=hidden;fillColor=none;top=0;left=0;bottom=0;right=0;pointerEvents=1;fontSize=16;" vertex="1" parent="OIUBVP9VXxcAG9u4YlGB-57">
          <mxGeometry width="375" height="505" as="geometry">
            <mxRectangle width="375" height="505" as="alternateBounds" />
          </mxGeometry>
        </mxCell>
        <mxCell id="OIUBVP9VXxcAG9u4YlGB-59" value="" style="shape=partialRectangle;html=1;whiteSpace=wrap;connectable=0;strokeColor=inherit;overflow=hidden;fillColor=none;top=0;left=0;bottom=0;right=0;pointerEvents=1;fontSize=16;" vertex="1" parent="OIUBVP9VXxcAG9u4YlGB-57">
          <mxGeometry x="375" width="375" height="505" as="geometry">
            <mxRectangle width="375" height="505" as="alternateBounds" />
          </mxGeometry>
        </mxCell>
        <mxCell id="OIUBVP9VXxcAG9u4YlGB-61" value="" style="shape=tableRow;horizontal=0;startSize=0;swimlaneHead=0;swimlaneBody=0;strokeColor=inherit;top=0;left=0;bottom=0;right=0;collapsible=0;dropTarget=0;fillColor=none;points=[[0,0.5],[1,0.5]];portConstraint=eastwest;fontSize=16;" vertex="1" parent="OIUBVP9VXxcAG9u4YlGB-56">
          <mxGeometry y="535" width="750" height="505" as="geometry" />
        </mxCell>
        <mxCell id="OIUBVP9VXxcAG9u4YlGB-62" value="" style="shape=partialRectangle;html=1;whiteSpace=wrap;connectable=0;strokeColor=inherit;overflow=hidden;fillColor=none;top=0;left=0;bottom=0;right=0;pointerEvents=1;fontSize=16;" vertex="1" parent="OIUBVP9VXxcAG9u4YlGB-61">
          <mxGeometry width="375" height="505" as="geometry">
            <mxRectangle width="375" height="505" as="alternateBounds" />
          </mxGeometry>
        </mxCell>
        <mxCell id="OIUBVP9VXxcAG9u4YlGB-63" value="" style="shape=partialRectangle;html=1;whiteSpace=wrap;connectable=0;strokeColor=inherit;overflow=hidden;fillColor=none;top=0;left=0;bottom=0;right=0;pointerEvents=1;fontSize=16;" vertex="1" parent="OIUBVP9VXxcAG9u4YlGB-61">
          <mxGeometry x="375" width="375" height="505" as="geometry">
            <mxRectangle width="375" height="505" as="alternateBounds" />
          </mxGeometry>
        </mxCell>
        <mxCell id="OIUBVP9VXxcAG9u4YlGB-69" value="Alta Importancia e Interés" style="text;html=1;align=center;verticalAlign=middle;whiteSpace=wrap;rounded=0;" vertex="1" parent="1">
          <mxGeometry x="-400" y="-480" width="150" height="20" as="geometry" />
        </mxCell>
        <mxCell id="OIUBVP9VXxcAG9u4YlGB-70" value="Alta Importancia y Bajo Interés" style="text;html=1;align=center;verticalAlign=middle;whiteSpace=wrap;rounded=0;" vertex="1" parent="1">
          <mxGeometry x="-760" y="-480" width="170" height="20" as="geometry" />
        </mxCell>
        <mxCell id="OIUBVP9VXxcAG9u4YlGB-71" value="Baja Importancia e Interés" style="text;html=1;align=center;verticalAlign=middle;whiteSpace=wrap;rounded=0;" vertex="1" parent="1">
          <mxGeometry x="-760" y="40" width="150" height="20" as="geometry" />
        </mxCell>
        <mxCell id="OIUBVP9VXxcAG9u4YlGB-72" value="Baja Importancia y Alto Interés" style="text;html=1;align=center;verticalAlign=middle;whiteSpace=wrap;rounded=0;" vertex="1" parent="1">
          <mxGeometry x="-400" y="40" width="170" height="20" as="geometry" />
        </mxCell>
        <mxCell id="OIUBVP9VXxcAG9u4YlGB-73" value="&lt;p align=&quot;left&quot;&gt;&lt;font style=&quot;font-size: 18px;&quot;&gt;Misión: Mejorar el rendimiento y sensatez de las acciones del ejecutivo de la ciudad inteligente en temas como la planificación urbana y concesión de proyectos, por todo el mandato restante. &lt;br&gt;&lt;/font&gt;&lt;/p&gt;" style="text;html=1;align=left;verticalAlign=middle;whiteSpace=wrap;rounded=0;" vertex="1" parent="1">
          <mxGeometry x="-800" y="-840" width="760" height="40" as="geometry" />
        </mxCell>
        <mxCell id="OIUBVP9VXxcAG9u4YlGB-74" value="&lt;div&gt;&lt;font style=&quot;font-size: 18px;&quot;&gt;Objetivos:&lt;/font&gt;&lt;/div&gt;&lt;div&gt;&lt;font size=&quot;3&quot;&gt;General:&lt;/font&gt;&lt;/div&gt;&lt;div&gt;&lt;font size=&quot;3&quot;&gt;&lt;span style=&quot;white-space: pre;&quot;&gt;&#x9;- Concebir un sistema que recopile una serie de datos importantes de la Ciudad Inteligente para&lt;/span&gt;&lt;/font&gt;&lt;/div&gt;&lt;div&gt;&lt;font size=&quot;3&quot;&gt;&lt;span style=&quot;white-space: pre;&quot;&gt;&lt;span style=&quot;white-space: pre;&quot;&gt;&#x9;&lt;/span&gt;el mejoramiento de la toma de decisiones a nivel gubernamental.&lt;/span&gt;&lt;/font&gt;&lt;/div&gt;&lt;div&gt;&lt;font size=&quot;3&quot;&gt;Específicos:&lt;/font&gt;&lt;/div&gt;&lt;div&gt;&lt;font size=&quot;3&quot;&gt;&lt;span style=&quot;white-space: pre;&quot;&gt;&#x9;&lt;/span&gt;- Desarrollar el modelo conceptual de DataVerse que logre optimizar el envió y la recopilación de datos &lt;span style=&quot;white-space: pre;&quot;&gt;&#x9;&lt;/span&gt;de todas las fuentes en el primer mes.&lt;/font&gt;&lt;/div&gt;&lt;div&gt;&lt;font size=&quot;3&quot;&gt;&lt;span style=&quot;white-space: pre;&quot;&gt;&#x9;&lt;/span&gt;- Poner en funcionamiento la Base de Datos SQL en una muestra mínima de datos a mitades del &lt;span style=&quot;white-space: pre;&quot;&gt;&#x9;&lt;/span&gt;Segundo Mes.&lt;/font&gt;&lt;/div&gt;&lt;div&gt;&lt;font size=&quot;3&quot;&gt;&lt;span style=&quot;white-space: pre;&quot;&gt;&#x9;&lt;/span&gt;-Implementar el acceso completo a todos los entradas y datos del proyecto para finales del Segundo &lt;span style=&quot;white-space: pre;&quot;&gt;&#x9;&lt;/span&gt;mes.&lt;/font&gt;&lt;/div&gt;&lt;div&gt;&lt;font size=&quot;3&quot;&gt;&lt;span style=&quot;white-space: pre;&quot;&gt;&#x9;&lt;/span&gt;-Crear la Interfaz Gráfica para la Alcaldía donde se puedan interpretar los datos fácilmente para finales &lt;span style=&quot;white-space: pre;&quot;&gt;&#x9;&lt;/span&gt;del tercer mes.&lt;/font&gt;&lt;/div&gt;" style="text;html=1;align=left;verticalAlign=middle;whiteSpace=wrap;rounded=0;" vertex="1" parent="1">
          <mxGeometry x="-800" y="-760" width="760" height="210" as="geometry" />
        </mxCell>
        <mxCell id="OIUBVP9VXxcAG9u4YlGB-75" value="&lt;p align=&quot;left&quot;&gt;&lt;font style=&quot;font-size: 36px;&quot;&gt;Los problemas que podía solucionar DataVerse podrían ser:&lt;/font&gt;&lt;/p&gt;&lt;div&gt;&lt;font size=&quot;3&quot;&gt;&lt;span style=&quot;white-space: pre;&quot;&gt;&#x9;&lt;/span&gt;&lt;span style=&quot;white-space: pre;&quot;&gt;&#x9;&lt;/span&gt;&lt;font&gt;-Localización de Vehiculos&lt;/font&gt;&lt;/font&gt;&lt;/div&gt;&lt;div&gt;&lt;font size=&quot;3&quot;&gt;&lt;span style=&quot;white-space: pre;&quot;&gt;&#x9;&lt;/span&gt;&lt;span style=&quot;white-space: pre;&quot;&gt;&#x9;&lt;/span&gt;-Manejo del Trafico y Reducción de los trancones&lt;/font&gt;&lt;/div&gt;&lt;div&gt;&lt;font size=&quot;3&quot;&gt;&lt;span style=&quot;white-space: pre;&quot;&gt;&#x9;&lt;/span&gt;&lt;span style=&quot;white-space: pre;&quot;&gt;&#x9;&lt;/span&gt;-Manejo de Aguas Fluviales y concuecias del Clima.&lt;/font&gt;&lt;/div&gt;&lt;div&gt;&lt;font size=&quot;3&quot;&gt;&lt;span style=&quot;white-space: pre;&quot;&gt;&#x9;&lt;/span&gt;&lt;span style=&quot;white-space: pre;&quot;&gt;&#x9;&lt;/span&gt;-Localización de Criminales&lt;/font&gt;&lt;/div&gt;" style="text;html=1;align=left;verticalAlign=middle;whiteSpace=wrap;rounded=0;" vertex="1" parent="1">
          <mxGeometry x="40" y="-840" width="760" height="280" as="geometry" />
        </mxCell>
        <mxCell id="OIUBVP9VXxcAG9u4YlGB-76" value="&lt;p align=&quot;left&quot;&gt;&lt;font style=&quot;font-size: 18px;&quot;&gt;Diagrama de Clase:&lt;/font&gt;&lt;/p&gt;" style="text;html=1;align=left;verticalAlign=middle;whiteSpace=wrap;rounded=0;" vertex="1" parent="1">
          <mxGeometry x="-817" y="600" width="177" height="40" as="geometry" />
        </mxCell>
        <mxCell id="OIUBVP9VXxcAG9u4YlGB-77" value="&lt;p align=&quot;left&quot;&gt;&lt;font style=&quot;font-size: 18px;&quot;&gt;Modelo Conceptual:&lt;/font&gt;&lt;/p&gt;" style="text;html=1;align=left;verticalAlign=middle;whiteSpace=wrap;rounded=0;" vertex="1" parent="1">
          <mxGeometry x="440" y="600" width="177" height="40" as="geometry" />
        </mxCell>
        <mxCell id="OIUBVP9VXxcAG9u4YlGB-79" value="&lt;font style=&quot;font-size: 36px;&quot;&gt;Alcalde&lt;/font&gt;" style="text;html=1;align=center;verticalAlign=middle;whiteSpace=wrap;rounded=0;" vertex="1" parent="1">
          <mxGeometry x="-290" y="-370" width="200" height="110" as="geometry" />
        </mxCell>
        <mxCell id="OIUBVP9VXxcAG9u4YlGB-80" value="&lt;font style=&quot;font-size: 36px;&quot;&gt;Auditores&lt;/font&gt;" style="text;html=1;align=center;verticalAlign=middle;whiteSpace=wrap;rounded=0;" vertex="1" parent="1">
          <mxGeometry x="-760" y="-300" width="160" height="40" as="geometry" />
        </mxCell>
        <mxCell id="OIUBVP9VXxcAG9u4YlGB-81" value="&lt;font style=&quot;font-size: 36px;&quot;&gt;Concejales&lt;/font&gt;" style="text;html=1;align=center;verticalAlign=middle;whiteSpace=wrap;rounded=0;" vertex="1" parent="1">
          <mxGeometry x="-690" y="-400" width="210" height="60" as="geometry" />
        </mxCell>
        <mxCell id="OIUBVP9VXxcAG9u4YlGB-82" value="&lt;font style=&quot;font-size: 36px;&quot;&gt;Ciudadanos Comunes&lt;/font&gt;" style="text;html=1;align=center;verticalAlign=middle;whiteSpace=wrap;rounded=0;" vertex="1" parent="1">
          <mxGeometry x="-755" y="170" width="300" height="90" as="geometry" />
        </mxCell>
        <mxCell id="OIUBVP9VXxcAG9u4YlGB-83" value="&lt;font style=&quot;font-size: 36px;&quot;&gt;Contratistas&lt;/font&gt;" style="text;html=1;align=center;verticalAlign=middle;whiteSpace=wrap;rounded=0;" vertex="1" parent="1">
          <mxGeometry x="-280" y="200" width="210" height="40" as="geometry" />
        </mxCell>
        <mxCell id="OIUBVP9VXxcAG9u4YlGB-84" value="&lt;font style=&quot;font-size: 36px;&quot;&gt;Altos Responsables de cada Secretaria&lt;/font&gt;" style="text;html=1;align=center;verticalAlign=middle;whiteSpace=wrap;rounded=0;" vertex="1" parent="1">
          <mxGeometry x="-370" y="-200" width="270" height="200" as="geometry" />
        </mxCell>
        <mxCell id="OIUBVP9VXxcAG9u4YlGB-85" value="&lt;font style=&quot;font-size: 36px;&quot;&gt;Gobierno Nacional&lt;/font&gt;" style="text;html=1;align=center;verticalAlign=middle;whiteSpace=wrap;rounded=0;" vertex="1" parent="1">
          <mxGeometry x="-755" y="-130" width="180" height="90" as="geometry" />
        </mxCell>
        <mxCell id="OIUBVP9VXxcAG9u4YlGB-86" value="&lt;font style=&quot;font-size: 36px;&quot;&gt;Otras Ciudades&lt;/font&gt;" style="text;html=1;align=center;verticalAlign=middle;whiteSpace=wrap;rounded=0;" vertex="1" parent="1">
          <mxGeometry x="-340" y="290" width="180" height="100" as="geometry" />
        </mxCell>
        <mxCell id="OIUBVP9VXxcAG9u4YlGB-87" value="&lt;font style=&quot;font-size: 36px;&quot;&gt;Empresa Privadas&lt;/font&gt;" style="text;html=1;align=center;verticalAlign=middle;whiteSpace=wrap;rounded=0;" vertex="1" parent="1">
          <mxGeometry x="-740" y="310" width="270" height="140" as="geometry" />
        </mxCell>
        <mxCell id="OIUBVP9VXxcAG9u4YlGB-88" value="&lt;font style=&quot;font-size: 36px;&quot;&gt;Jueces&lt;/font&gt;" style="text;html=1;align=center;verticalAlign=middle;whiteSpace=wrap;rounded=0;" vertex="1" parent="1">
          <mxGeometry x="-630" y="-210" width="160" height="40" as="geometry" />
        </mxCell>
        <mxCell id="OIUBVP9VXxcAG9u4YlGB-158" style="edgeStyle=orthogonalEdgeStyle;rounded=0;orthogonalLoop=1;jettySize=auto;html=1;exitX=0;exitY=0.5;exitDx=0;exitDy=0;entryX=1;entryY=0.5;entryDx=0;entryDy=0;" edge="1" parent="1" source="OIUBVP9VXxcAG9u4YlGB-89" target="OIUBVP9VXxcAG9u4YlGB-118">
          <mxGeometry relative="1" as="geometry" />
        </mxCell>
        <mxCell id="OIUBVP9VXxcAG9u4YlGB-89" value="Seccion" style="swimlane;fontStyle=1;align=center;verticalAlign=top;childLayout=stackLayout;horizontal=1;startSize=26;horizontalStack=0;resizeParent=1;resizeParentMax=0;resizeLast=0;collapsible=1;marginBottom=0;whiteSpace=wrap;html=1;" vertex="1" parent="1">
          <mxGeometry x="-560" y="910" width="160" height="86" as="geometry" />
        </mxCell>
        <mxCell id="OIUBVP9VXxcAG9u4YlGB-159" style="edgeStyle=orthogonalEdgeStyle;rounded=0;orthogonalLoop=1;jettySize=auto;html=1;exitX=0;exitY=0.5;exitDx=0;exitDy=0;" edge="1" parent="OIUBVP9VXxcAG9u4YlGB-89" source="OIUBVP9VXxcAG9u4YlGB-90">
          <mxGeometry relative="1" as="geometry">
            <mxPoint x="-140" y="38.285714285714675" as="targetPoint" />
          </mxGeometry>
        </mxCell>
        <mxCell id="OIUBVP9VXxcAG9u4YlGB-90" value="+ field: type" style="text;strokeColor=none;fillColor=none;align=left;verticalAlign=top;spacingLeft=4;spacingRight=4;overflow=hidden;rotatable=0;points=[[0,0.5],[1,0.5]];portConstraint=eastwest;whiteSpace=wrap;html=1;" vertex="1" parent="OIUBVP9VXxcAG9u4YlGB-89">
          <mxGeometry y="26" width="160" height="26" as="geometry" />
        </mxCell>
        <mxCell id="OIUBVP9VXxcAG9u4YlGB-91" value="" style="line;strokeWidth=1;fillColor=none;align=left;verticalAlign=middle;spacingTop=-1;spacingLeft=3;spacingRight=3;rotatable=0;labelPosition=right;points=[];portConstraint=eastwest;strokeColor=inherit;" vertex="1" parent="OIUBVP9VXxcAG9u4YlGB-89">
          <mxGeometry y="52" width="160" height="8" as="geometry" />
        </mxCell>
        <mxCell id="OIUBVP9VXxcAG9u4YlGB-92" value="+ method(type): type" style="text;strokeColor=none;fillColor=none;align=left;verticalAlign=top;spacingLeft=4;spacingRight=4;overflow=hidden;rotatable=0;points=[[0,0.5],[1,0.5]];portConstraint=eastwest;whiteSpace=wrap;html=1;" vertex="1" parent="OIUBVP9VXxcAG9u4YlGB-89">
          <mxGeometry y="60" width="160" height="26" as="geometry" />
        </mxCell>
        <mxCell id="OIUBVP9VXxcAG9u4YlGB-97" value="Semaforo" style="swimlane;fontStyle=1;align=center;verticalAlign=top;childLayout=stackLayout;horizontal=1;startSize=26;horizontalStack=0;resizeParent=1;resizeParentMax=0;resizeLast=0;collapsible=1;marginBottom=0;whiteSpace=wrap;html=1;" vertex="1" parent="1">
          <mxGeometry x="-870" y="894" width="160" height="86" as="geometry" />
        </mxCell>
        <mxCell id="OIUBVP9VXxcAG9u4YlGB-98" value="+ field: type" style="text;strokeColor=none;fillColor=none;align=left;verticalAlign=top;spacingLeft=4;spacingRight=4;overflow=hidden;rotatable=0;points=[[0,0.5],[1,0.5]];portConstraint=eastwest;whiteSpace=wrap;html=1;" vertex="1" parent="OIUBVP9VXxcAG9u4YlGB-97">
          <mxGeometry y="26" width="160" height="26" as="geometry" />
        </mxCell>
        <mxCell id="OIUBVP9VXxcAG9u4YlGB-99" value="" style="line;strokeWidth=1;fillColor=none;align=left;verticalAlign=middle;spacingTop=-1;spacingLeft=3;spacingRight=3;rotatable=0;labelPosition=right;points=[];portConstraint=eastwest;strokeColor=inherit;" vertex="1" parent="OIUBVP9VXxcAG9u4YlGB-97">
          <mxGeometry y="52" width="160" height="8" as="geometry" />
        </mxCell>
        <mxCell id="OIUBVP9VXxcAG9u4YlGB-100" value="+ method(type): type" style="text;strokeColor=none;fillColor=none;align=left;verticalAlign=top;spacingLeft=4;spacingRight=4;overflow=hidden;rotatable=0;points=[[0,0.5],[1,0.5]];portConstraint=eastwest;whiteSpace=wrap;html=1;" vertex="1" parent="OIUBVP9VXxcAG9u4YlGB-97">
          <mxGeometry y="60" width="160" height="26" as="geometry" />
        </mxCell>
        <mxCell id="OIUBVP9VXxcAG9u4YlGB-101" value="SensorIot" style="swimlane;fontStyle=1;align=center;verticalAlign=top;childLayout=stackLayout;horizontal=1;startSize=26;horizontalStack=0;resizeParent=1;resizeParentMax=0;resizeLast=0;collapsible=1;marginBottom=0;whiteSpace=wrap;html=1;" vertex="1" parent="1">
          <mxGeometry x="-870" y="1090" width="160" height="86" as="geometry" />
        </mxCell>
        <mxCell id="OIUBVP9VXxcAG9u4YlGB-102" value="+ field: type" style="text;strokeColor=none;fillColor=none;align=left;verticalAlign=top;spacingLeft=4;spacingRight=4;overflow=hidden;rotatable=0;points=[[0,0.5],[1,0.5]];portConstraint=eastwest;whiteSpace=wrap;html=1;" vertex="1" parent="OIUBVP9VXxcAG9u4YlGB-101">
          <mxGeometry y="26" width="160" height="26" as="geometry" />
        </mxCell>
        <mxCell id="OIUBVP9VXxcAG9u4YlGB-103" value="" style="line;strokeWidth=1;fillColor=none;align=left;verticalAlign=middle;spacingTop=-1;spacingLeft=3;spacingRight=3;rotatable=0;labelPosition=right;points=[];portConstraint=eastwest;strokeColor=inherit;" vertex="1" parent="OIUBVP9VXxcAG9u4YlGB-101">
          <mxGeometry y="52" width="160" height="8" as="geometry" />
        </mxCell>
        <mxCell id="OIUBVP9VXxcAG9u4YlGB-104" value="+ method(type): type" style="text;strokeColor=none;fillColor=none;align=left;verticalAlign=top;spacingLeft=4;spacingRight=4;overflow=hidden;rotatable=0;points=[[0,0.5],[1,0.5]];portConstraint=eastwest;whiteSpace=wrap;html=1;" vertex="1" parent="OIUBVP9VXxcAG9u4YlGB-101">
          <mxGeometry y="60" width="160" height="26" as="geometry" />
        </mxCell>
        <mxCell id="OIUBVP9VXxcAG9u4YlGB-105" value="SensorEnerg" style="swimlane;fontStyle=1;align=center;verticalAlign=top;childLayout=stackLayout;horizontal=1;startSize=26;horizontalStack=0;resizeParent=1;resizeParentMax=0;resizeLast=0;collapsible=1;marginBottom=0;whiteSpace=wrap;html=1;" vertex="1" parent="1">
          <mxGeometry x="-870" y="1200" width="160" height="86" as="geometry" />
        </mxCell>
        <mxCell id="OIUBVP9VXxcAG9u4YlGB-106" value="+ field: type" style="text;strokeColor=none;fillColor=none;align=left;verticalAlign=top;spacingLeft=4;spacingRight=4;overflow=hidden;rotatable=0;points=[[0,0.5],[1,0.5]];portConstraint=eastwest;whiteSpace=wrap;html=1;" vertex="1" parent="OIUBVP9VXxcAG9u4YlGB-105">
          <mxGeometry y="26" width="160" height="26" as="geometry" />
        </mxCell>
        <mxCell id="OIUBVP9VXxcAG9u4YlGB-107" value="" style="line;strokeWidth=1;fillColor=none;align=left;verticalAlign=middle;spacingTop=-1;spacingLeft=3;spacingRight=3;rotatable=0;labelPosition=right;points=[];portConstraint=eastwest;strokeColor=inherit;" vertex="1" parent="OIUBVP9VXxcAG9u4YlGB-105">
          <mxGeometry y="52" width="160" height="8" as="geometry" />
        </mxCell>
        <mxCell id="OIUBVP9VXxcAG9u4YlGB-108" value="+ method(type): type" style="text;strokeColor=none;fillColor=none;align=left;verticalAlign=top;spacingLeft=4;spacingRight=4;overflow=hidden;rotatable=0;points=[[0,0.5],[1,0.5]];portConstraint=eastwest;whiteSpace=wrap;html=1;" vertex="1" parent="OIUBVP9VXxcAG9u4YlGB-105">
          <mxGeometry y="60" width="160" height="26" as="geometry" />
        </mxCell>
        <mxCell id="OIUBVP9VXxcAG9u4YlGB-109" value="CamaraDeSeguridad" style="swimlane;fontStyle=1;align=center;verticalAlign=top;childLayout=stackLayout;horizontal=1;startSize=26;horizontalStack=0;resizeParent=1;resizeParentMax=0;resizeLast=0;collapsible=1;marginBottom=0;whiteSpace=wrap;html=1;" vertex="1" parent="1">
          <mxGeometry x="-870" y="700" width="160" height="86" as="geometry" />
        </mxCell>
        <mxCell id="OIUBVP9VXxcAG9u4YlGB-110" value="+ field: type" style="text;strokeColor=none;fillColor=none;align=left;verticalAlign=top;spacingLeft=4;spacingRight=4;overflow=hidden;rotatable=0;points=[[0,0.5],[1,0.5]];portConstraint=eastwest;whiteSpace=wrap;html=1;" vertex="1" parent="OIUBVP9VXxcAG9u4YlGB-109">
          <mxGeometry y="26" width="160" height="26" as="geometry" />
        </mxCell>
        <mxCell id="OIUBVP9VXxcAG9u4YlGB-111" value="" style="line;strokeWidth=1;fillColor=none;align=left;verticalAlign=middle;spacingTop=-1;spacingLeft=3;spacingRight=3;rotatable=0;labelPosition=right;points=[];portConstraint=eastwest;strokeColor=inherit;" vertex="1" parent="OIUBVP9VXxcAG9u4YlGB-109">
          <mxGeometry y="52" width="160" height="8" as="geometry" />
        </mxCell>
        <mxCell id="OIUBVP9VXxcAG9u4YlGB-112" value="+ method(type): type" style="text;strokeColor=none;fillColor=none;align=left;verticalAlign=top;spacingLeft=4;spacingRight=4;overflow=hidden;rotatable=0;points=[[0,0.5],[1,0.5]];portConstraint=eastwest;whiteSpace=wrap;html=1;" vertex="1" parent="OIUBVP9VXxcAG9u4YlGB-109">
          <mxGeometry y="60" width="160" height="26" as="geometry" />
        </mxCell>
        <mxCell id="OIUBVP9VXxcAG9u4YlGB-113" value="SensorTransporte" style="swimlane;fontStyle=1;align=center;verticalAlign=top;childLayout=stackLayout;horizontal=1;startSize=26;horizontalStack=0;resizeParent=1;resizeParentMax=0;resizeLast=0;collapsible=1;marginBottom=0;whiteSpace=wrap;html=1;" vertex="1" parent="1">
          <mxGeometry x="-870" y="990" width="160" height="86" as="geometry" />
        </mxCell>
        <mxCell id="OIUBVP9VXxcAG9u4YlGB-114" value="+ field: type" style="text;strokeColor=none;fillColor=none;align=left;verticalAlign=top;spacingLeft=4;spacingRight=4;overflow=hidden;rotatable=0;points=[[0,0.5],[1,0.5]];portConstraint=eastwest;whiteSpace=wrap;html=1;" vertex="1" parent="OIUBVP9VXxcAG9u4YlGB-113">
          <mxGeometry y="26" width="160" height="26" as="geometry" />
        </mxCell>
        <mxCell id="OIUBVP9VXxcAG9u4YlGB-115" value="" style="line;strokeWidth=1;fillColor=none;align=left;verticalAlign=middle;spacingTop=-1;spacingLeft=3;spacingRight=3;rotatable=0;labelPosition=right;points=[];portConstraint=eastwest;strokeColor=inherit;" vertex="1" parent="OIUBVP9VXxcAG9u4YlGB-113">
          <mxGeometry y="52" width="160" height="8" as="geometry" />
        </mxCell>
        <mxCell id="OIUBVP9VXxcAG9u4YlGB-116" value="+ method(type): type" style="text;strokeColor=none;fillColor=none;align=left;verticalAlign=top;spacingLeft=4;spacingRight=4;overflow=hidden;rotatable=0;points=[[0,0.5],[1,0.5]];portConstraint=eastwest;whiteSpace=wrap;html=1;" vertex="1" parent="OIUBVP9VXxcAG9u4YlGB-113">
          <mxGeometry y="60" width="160" height="26" as="geometry" />
        </mxCell>
        <mxCell id="OIUBVP9VXxcAG9u4YlGB-117" value="RedesSociales" style="swimlane;fontStyle=1;align=center;verticalAlign=top;childLayout=stackLayout;horizontal=1;startSize=26;horizontalStack=0;resizeParent=1;resizeParentMax=0;resizeLast=0;collapsible=1;marginBottom=0;whiteSpace=wrap;html=1;" vertex="1" parent="1">
          <mxGeometry x="-870" y="800" width="160" height="86" as="geometry" />
        </mxCell>
        <mxCell id="OIUBVP9VXxcAG9u4YlGB-118" value="+ field: type" style="text;strokeColor=none;fillColor=none;align=left;verticalAlign=top;spacingLeft=4;spacingRight=4;overflow=hidden;rotatable=0;points=[[0,0.5],[1,0.5]];portConstraint=eastwest;whiteSpace=wrap;html=1;" vertex="1" parent="OIUBVP9VXxcAG9u4YlGB-117">
          <mxGeometry y="26" width="160" height="26" as="geometry" />
        </mxCell>
        <mxCell id="OIUBVP9VXxcAG9u4YlGB-119" value="" style="line;strokeWidth=1;fillColor=none;align=left;verticalAlign=middle;spacingTop=-1;spacingLeft=3;spacingRight=3;rotatable=0;labelPosition=right;points=[];portConstraint=eastwest;strokeColor=inherit;" vertex="1" parent="OIUBVP9VXxcAG9u4YlGB-117">
          <mxGeometry y="52" width="160" height="8" as="geometry" />
        </mxCell>
        <mxCell id="OIUBVP9VXxcAG9u4YlGB-120" value="+ method(type): type" style="text;strokeColor=none;fillColor=none;align=left;verticalAlign=top;spacingLeft=4;spacingRight=4;overflow=hidden;rotatable=0;points=[[0,0.5],[1,0.5]];portConstraint=eastwest;whiteSpace=wrap;html=1;" vertex="1" parent="OIUBVP9VXxcAG9u4YlGB-117">
          <mxGeometry y="60" width="160" height="26" as="geometry" />
        </mxCell>
        <mxCell id="OIUBVP9VXxcAG9u4YlGB-121" value="Barrrio" style="swimlane;fontStyle=1;align=center;verticalAlign=top;childLayout=stackLayout;horizontal=1;startSize=26;horizontalStack=0;resizeParent=1;resizeParentMax=0;resizeLast=0;collapsible=1;marginBottom=0;whiteSpace=wrap;html=1;" vertex="1" parent="1">
          <mxGeometry x="-350" y="910" width="160" height="86" as="geometry" />
        </mxCell>
        <mxCell id="OIUBVP9VXxcAG9u4YlGB-122" value="+ field: type" style="text;strokeColor=none;fillColor=none;align=left;verticalAlign=top;spacingLeft=4;spacingRight=4;overflow=hidden;rotatable=0;points=[[0,0.5],[1,0.5]];portConstraint=eastwest;whiteSpace=wrap;html=1;" vertex="1" parent="OIUBVP9VXxcAG9u4YlGB-121">
          <mxGeometry y="26" width="160" height="26" as="geometry" />
        </mxCell>
        <mxCell id="OIUBVP9VXxcAG9u4YlGB-123" value="" style="line;strokeWidth=1;fillColor=none;align=left;verticalAlign=middle;spacingTop=-1;spacingLeft=3;spacingRight=3;rotatable=0;labelPosition=right;points=[];portConstraint=eastwest;strokeColor=inherit;" vertex="1" parent="OIUBVP9VXxcAG9u4YlGB-121">
          <mxGeometry y="52" width="160" height="8" as="geometry" />
        </mxCell>
        <mxCell id="OIUBVP9VXxcAG9u4YlGB-124" value="+ method(type): type" style="text;strokeColor=none;fillColor=none;align=left;verticalAlign=top;spacingLeft=4;spacingRight=4;overflow=hidden;rotatable=0;points=[[0,0.5],[1,0.5]];portConstraint=eastwest;whiteSpace=wrap;html=1;" vertex="1" parent="OIUBVP9VXxcAG9u4YlGB-121">
          <mxGeometry y="60" width="160" height="26" as="geometry" />
        </mxCell>
        <mxCell id="OIUBVP9VXxcAG9u4YlGB-125" value="Sector" style="swimlane;fontStyle=1;align=center;verticalAlign=top;childLayout=stackLayout;horizontal=1;startSize=26;horizontalStack=0;resizeParent=1;resizeParentMax=0;resizeLast=0;collapsible=1;marginBottom=0;whiteSpace=wrap;html=1;" vertex="1" parent="1">
          <mxGeometry x="-150" y="910" width="160" height="86" as="geometry" />
        </mxCell>
        <mxCell id="OIUBVP9VXxcAG9u4YlGB-126" value="+ field: type" style="text;strokeColor=none;fillColor=none;align=left;verticalAlign=top;spacingLeft=4;spacingRight=4;overflow=hidden;rotatable=0;points=[[0,0.5],[1,0.5]];portConstraint=eastwest;whiteSpace=wrap;html=1;" vertex="1" parent="OIUBVP9VXxcAG9u4YlGB-125">
          <mxGeometry y="26" width="160" height="26" as="geometry" />
        </mxCell>
        <mxCell id="OIUBVP9VXxcAG9u4YlGB-127" value="" style="line;strokeWidth=1;fillColor=none;align=left;verticalAlign=middle;spacingTop=-1;spacingLeft=3;spacingRight=3;rotatable=0;labelPosition=right;points=[];portConstraint=eastwest;strokeColor=inherit;" vertex="1" parent="OIUBVP9VXxcAG9u4YlGB-125">
          <mxGeometry y="52" width="160" height="8" as="geometry" />
        </mxCell>
        <mxCell id="OIUBVP9VXxcAG9u4YlGB-128" value="+ method(type): type" style="text;strokeColor=none;fillColor=none;align=left;verticalAlign=top;spacingLeft=4;spacingRight=4;overflow=hidden;rotatable=0;points=[[0,0.5],[1,0.5]];portConstraint=eastwest;whiteSpace=wrap;html=1;" vertex="1" parent="OIUBVP9VXxcAG9u4YlGB-125">
          <mxGeometry y="60" width="160" height="26" as="geometry" />
        </mxCell>
        <mxCell id="OIUBVP9VXxcAG9u4YlGB-129" value="Localidad" style="swimlane;fontStyle=1;align=center;verticalAlign=top;childLayout=stackLayout;horizontal=1;startSize=26;horizontalStack=0;resizeParent=1;resizeParentMax=0;resizeLast=0;collapsible=1;marginBottom=0;whiteSpace=wrap;html=1;" vertex="1" parent="1">
          <mxGeometry x="40" y="910" width="160" height="86" as="geometry" />
        </mxCell>
        <mxCell id="OIUBVP9VXxcAG9u4YlGB-130" value="+ field: type" style="text;strokeColor=none;fillColor=none;align=left;verticalAlign=top;spacingLeft=4;spacingRight=4;overflow=hidden;rotatable=0;points=[[0,0.5],[1,0.5]];portConstraint=eastwest;whiteSpace=wrap;html=1;" vertex="1" parent="OIUBVP9VXxcAG9u4YlGB-129">
          <mxGeometry y="26" width="160" height="26" as="geometry" />
        </mxCell>
        <mxCell id="OIUBVP9VXxcAG9u4YlGB-131" value="" style="line;strokeWidth=1;fillColor=none;align=left;verticalAlign=middle;spacingTop=-1;spacingLeft=3;spacingRight=3;rotatable=0;labelPosition=right;points=[];portConstraint=eastwest;strokeColor=inherit;" vertex="1" parent="OIUBVP9VXxcAG9u4YlGB-129">
          <mxGeometry y="52" width="160" height="8" as="geometry" />
        </mxCell>
        <mxCell id="OIUBVP9VXxcAG9u4YlGB-132" value="+ method(type): type" style="text;strokeColor=none;fillColor=none;align=left;verticalAlign=top;spacingLeft=4;spacingRight=4;overflow=hidden;rotatable=0;points=[[0,0.5],[1,0.5]];portConstraint=eastwest;whiteSpace=wrap;html=1;" vertex="1" parent="OIUBVP9VXxcAG9u4YlGB-129">
          <mxGeometry y="60" width="160" height="26" as="geometry" />
        </mxCell>
        <mxCell id="OIUBVP9VXxcAG9u4YlGB-133" value="CiudadInteligente" style="swimlane;fontStyle=1;align=center;verticalAlign=top;childLayout=stackLayout;horizontal=1;startSize=26;horizontalStack=0;resizeParent=1;resizeParentMax=0;resizeLast=0;collapsible=1;marginBottom=0;whiteSpace=wrap;html=1;" vertex="1" parent="1">
          <mxGeometry x="240" y="910" width="160" height="86" as="geometry" />
        </mxCell>
        <mxCell id="OIUBVP9VXxcAG9u4YlGB-134" value="+ field: type" style="text;strokeColor=none;fillColor=none;align=left;verticalAlign=top;spacingLeft=4;spacingRight=4;overflow=hidden;rotatable=0;points=[[0,0.5],[1,0.5]];portConstraint=eastwest;whiteSpace=wrap;html=1;" vertex="1" parent="OIUBVP9VXxcAG9u4YlGB-133">
          <mxGeometry y="26" width="160" height="26" as="geometry" />
        </mxCell>
        <mxCell id="OIUBVP9VXxcAG9u4YlGB-135" value="" style="line;strokeWidth=1;fillColor=none;align=left;verticalAlign=middle;spacingTop=-1;spacingLeft=3;spacingRight=3;rotatable=0;labelPosition=right;points=[];portConstraint=eastwest;strokeColor=inherit;" vertex="1" parent="OIUBVP9VXxcAG9u4YlGB-133">
          <mxGeometry y="52" width="160" height="8" as="geometry" />
        </mxCell>
        <mxCell id="OIUBVP9VXxcAG9u4YlGB-136" value="+ method(type): type" style="text;strokeColor=none;fillColor=none;align=left;verticalAlign=top;spacingLeft=4;spacingRight=4;overflow=hidden;rotatable=0;points=[[0,0.5],[1,0.5]];portConstraint=eastwest;whiteSpace=wrap;html=1;" vertex="1" parent="OIUBVP9VXxcAG9u4YlGB-133">
          <mxGeometry y="60" width="160" height="26" as="geometry" />
        </mxCell>
        <mxCell id="OIUBVP9VXxcAG9u4YlGB-137" value="Vehiculo" style="swimlane;fontStyle=1;align=center;verticalAlign=top;childLayout=stackLayout;horizontal=1;startSize=26;horizontalStack=0;resizeParent=1;resizeParentMax=0;resizeLast=0;collapsible=1;marginBottom=0;whiteSpace=wrap;html=1;" vertex="1" parent="1">
          <mxGeometry x="-460" y="680" width="160" height="86" as="geometry" />
        </mxCell>
        <mxCell id="OIUBVP9VXxcAG9u4YlGB-138" value="+ field: type" style="text;strokeColor=none;fillColor=none;align=left;verticalAlign=top;spacingLeft=4;spacingRight=4;overflow=hidden;rotatable=0;points=[[0,0.5],[1,0.5]];portConstraint=eastwest;whiteSpace=wrap;html=1;" vertex="1" parent="OIUBVP9VXxcAG9u4YlGB-137">
          <mxGeometry y="26" width="160" height="26" as="geometry" />
        </mxCell>
        <mxCell id="OIUBVP9VXxcAG9u4YlGB-139" value="" style="line;strokeWidth=1;fillColor=none;align=left;verticalAlign=middle;spacingTop=-1;spacingLeft=3;spacingRight=3;rotatable=0;labelPosition=right;points=[];portConstraint=eastwest;strokeColor=inherit;" vertex="1" parent="OIUBVP9VXxcAG9u4YlGB-137">
          <mxGeometry y="52" width="160" height="8" as="geometry" />
        </mxCell>
        <mxCell id="OIUBVP9VXxcAG9u4YlGB-140" value="+ method(type): type" style="text;strokeColor=none;fillColor=none;align=left;verticalAlign=top;spacingLeft=4;spacingRight=4;overflow=hidden;rotatable=0;points=[[0,0.5],[1,0.5]];portConstraint=eastwest;whiteSpace=wrap;html=1;" vertex="1" parent="OIUBVP9VXxcAG9u4YlGB-137">
          <mxGeometry y="60" width="160" height="26" as="geometry" />
        </mxCell>
        <mxCell id="OIUBVP9VXxcAG9u4YlGB-141" value="Transeunte" style="swimlane;fontStyle=1;align=center;verticalAlign=top;childLayout=stackLayout;horizontal=1;startSize=26;horizontalStack=0;resizeParent=1;resizeParentMax=0;resizeLast=0;collapsible=1;marginBottom=0;whiteSpace=wrap;html=1;" vertex="1" parent="1">
          <mxGeometry x="-266.5" y="680" width="160" height="86" as="geometry" />
        </mxCell>
        <mxCell id="OIUBVP9VXxcAG9u4YlGB-142" value="+ field: type" style="text;strokeColor=none;fillColor=none;align=left;verticalAlign=top;spacingLeft=4;spacingRight=4;overflow=hidden;rotatable=0;points=[[0,0.5],[1,0.5]];portConstraint=eastwest;whiteSpace=wrap;html=1;" vertex="1" parent="OIUBVP9VXxcAG9u4YlGB-141">
          <mxGeometry y="26" width="160" height="26" as="geometry" />
        </mxCell>
        <mxCell id="OIUBVP9VXxcAG9u4YlGB-143" value="" style="line;strokeWidth=1;fillColor=none;align=left;verticalAlign=middle;spacingTop=-1;spacingLeft=3;spacingRight=3;rotatable=0;labelPosition=right;points=[];portConstraint=eastwest;strokeColor=inherit;" vertex="1" parent="OIUBVP9VXxcAG9u4YlGB-141">
          <mxGeometry y="52" width="160" height="8" as="geometry" />
        </mxCell>
        <mxCell id="OIUBVP9VXxcAG9u4YlGB-144" value="+ method(type): type" style="text;strokeColor=none;fillColor=none;align=left;verticalAlign=top;spacingLeft=4;spacingRight=4;overflow=hidden;rotatable=0;points=[[0,0.5],[1,0.5]];portConstraint=eastwest;whiteSpace=wrap;html=1;" vertex="1" parent="OIUBVP9VXxcAG9u4YlGB-141">
          <mxGeometry y="60" width="160" height="26" as="geometry" />
        </mxCell>
        <mxCell id="OIUBVP9VXxcAG9u4YlGB-145" value="Accidente" style="swimlane;fontStyle=1;align=center;verticalAlign=top;childLayout=stackLayout;horizontal=1;startSize=26;horizontalStack=0;resizeParent=1;resizeParentMax=0;resizeLast=0;collapsible=1;marginBottom=0;whiteSpace=wrap;html=1;" vertex="1" parent="1">
          <mxGeometry x="-510" y="1100" width="160" height="86" as="geometry" />
        </mxCell>
        <mxCell id="OIUBVP9VXxcAG9u4YlGB-146" value="+ field: type" style="text;strokeColor=none;fillColor=none;align=left;verticalAlign=top;spacingLeft=4;spacingRight=4;overflow=hidden;rotatable=0;points=[[0,0.5],[1,0.5]];portConstraint=eastwest;whiteSpace=wrap;html=1;" vertex="1" parent="OIUBVP9VXxcAG9u4YlGB-145">
          <mxGeometry y="26" width="160" height="26" as="geometry" />
        </mxCell>
        <mxCell id="OIUBVP9VXxcAG9u4YlGB-147" value="" style="line;strokeWidth=1;fillColor=none;align=left;verticalAlign=middle;spacingTop=-1;spacingLeft=3;spacingRight=3;rotatable=0;labelPosition=right;points=[];portConstraint=eastwest;strokeColor=inherit;" vertex="1" parent="OIUBVP9VXxcAG9u4YlGB-145">
          <mxGeometry y="52" width="160" height="8" as="geometry" />
        </mxCell>
        <mxCell id="OIUBVP9VXxcAG9u4YlGB-148" value="+ method(type): type" style="text;strokeColor=none;fillColor=none;align=left;verticalAlign=top;spacingLeft=4;spacingRight=4;overflow=hidden;rotatable=0;points=[[0,0.5],[1,0.5]];portConstraint=eastwest;whiteSpace=wrap;html=1;" vertex="1" parent="OIUBVP9VXxcAG9u4YlGB-145">
          <mxGeometry y="60" width="160" height="26" as="geometry" />
        </mxCell>
        <mxCell id="OIUBVP9VXxcAG9u4YlGB-149" value="Crimen" style="swimlane;fontStyle=1;align=center;verticalAlign=top;childLayout=stackLayout;horizontal=1;startSize=26;horizontalStack=0;resizeParent=1;resizeParentMax=0;resizeLast=0;collapsible=1;marginBottom=0;whiteSpace=wrap;html=1;" vertex="1" parent="1">
          <mxGeometry x="-270" y="1100" width="160" height="86" as="geometry" />
        </mxCell>
        <mxCell id="OIUBVP9VXxcAG9u4YlGB-150" value="+ field: type" style="text;strokeColor=none;fillColor=none;align=left;verticalAlign=top;spacingLeft=4;spacingRight=4;overflow=hidden;rotatable=0;points=[[0,0.5],[1,0.5]];portConstraint=eastwest;whiteSpace=wrap;html=1;" vertex="1" parent="OIUBVP9VXxcAG9u4YlGB-149">
          <mxGeometry y="26" width="160" height="26" as="geometry" />
        </mxCell>
        <mxCell id="OIUBVP9VXxcAG9u4YlGB-151" value="" style="line;strokeWidth=1;fillColor=none;align=left;verticalAlign=middle;spacingTop=-1;spacingLeft=3;spacingRight=3;rotatable=0;labelPosition=right;points=[];portConstraint=eastwest;strokeColor=inherit;" vertex="1" parent="OIUBVP9VXxcAG9u4YlGB-149">
          <mxGeometry y="52" width="160" height="8" as="geometry" />
        </mxCell>
        <mxCell id="OIUBVP9VXxcAG9u4YlGB-152" value="+ method(type): type" style="text;strokeColor=none;fillColor=none;align=left;verticalAlign=top;spacingLeft=4;spacingRight=4;overflow=hidden;rotatable=0;points=[[0,0.5],[1,0.5]];portConstraint=eastwest;whiteSpace=wrap;html=1;" vertex="1" parent="OIUBVP9VXxcAG9u4YlGB-149">
          <mxGeometry y="60" width="160" height="26" as="geometry" />
        </mxCell>
        <mxCell id="OIUBVP9VXxcAG9u4YlGB-153" value="Clima" style="swimlane;fontStyle=1;align=center;verticalAlign=top;childLayout=stackLayout;horizontal=1;startSize=26;horizontalStack=0;resizeParent=1;resizeParentMax=0;resizeLast=0;collapsible=1;marginBottom=0;whiteSpace=wrap;html=1;" vertex="1" parent="1">
          <mxGeometry x="-60" y="1100" width="160" height="86" as="geometry" />
        </mxCell>
        <mxCell id="OIUBVP9VXxcAG9u4YlGB-154" value="+ field: type" style="text;strokeColor=none;fillColor=none;align=left;verticalAlign=top;spacingLeft=4;spacingRight=4;overflow=hidden;rotatable=0;points=[[0,0.5],[1,0.5]];portConstraint=eastwest;whiteSpace=wrap;html=1;" vertex="1" parent="OIUBVP9VXxcAG9u4YlGB-153">
          <mxGeometry y="26" width="160" height="26" as="geometry" />
        </mxCell>
        <mxCell id="OIUBVP9VXxcAG9u4YlGB-155" value="" style="line;strokeWidth=1;fillColor=none;align=left;verticalAlign=middle;spacingTop=-1;spacingLeft=3;spacingRight=3;rotatable=0;labelPosition=right;points=[];portConstraint=eastwest;strokeColor=inherit;" vertex="1" parent="OIUBVP9VXxcAG9u4YlGB-153">
          <mxGeometry y="52" width="160" height="8" as="geometry" />
        </mxCell>
        <mxCell id="OIUBVP9VXxcAG9u4YlGB-156" value="+ method(type): type" style="text;strokeColor=none;fillColor=none;align=left;verticalAlign=top;spacingLeft=4;spacingRight=4;overflow=hidden;rotatable=0;points=[[0,0.5],[1,0.5]];portConstraint=eastwest;whiteSpace=wrap;html=1;" vertex="1" parent="OIUBVP9VXxcAG9u4YlGB-153">
          <mxGeometry y="60" width="160" height="26" as="geometry" />
        </mxCell>
        <mxCell id="OIUBVP9VXxcAG9u4YlGB-157" style="edgeStyle=orthogonalEdgeStyle;rounded=0;orthogonalLoop=1;jettySize=auto;html=1;entryX=1.018;entryY=1.099;entryDx=0;entryDy=0;entryPerimeter=0;" edge="1" parent="1" source="OIUBVP9VXxcAG9u4YlGB-90" target="OIUBVP9VXxcAG9u4YlGB-110">
          <mxGeometry relative="1" as="geometry" />
        </mxCell>
        <mxCell id="OIUBVP9VXxcAG9u4YlGB-160" style="edgeStyle=orthogonalEdgeStyle;rounded=0;orthogonalLoop=1;jettySize=auto;html=1;exitX=0;exitY=0.5;exitDx=0;exitDy=0;entryX=1.032;entryY=0.934;entryDx=0;entryDy=0;entryPerimeter=0;" edge="1" parent="1" source="OIUBVP9VXxcAG9u4YlGB-90" target="OIUBVP9VXxcAG9u4YlGB-114">
          <mxGeometry relative="1" as="geometry" />
        </mxCell>
        <mxCell id="OIUBVP9VXxcAG9u4YlGB-161" style="edgeStyle=orthogonalEdgeStyle;rounded=0;orthogonalLoop=1;jettySize=auto;html=1;exitX=0;exitY=0.5;exitDx=0;exitDy=0;entryX=1.018;entryY=-0.044;entryDx=0;entryDy=0;entryPerimeter=0;" edge="1" parent="1" source="OIUBVP9VXxcAG9u4YlGB-90" target="OIUBVP9VXxcAG9u4YlGB-104">
          <mxGeometry relative="1" as="geometry" />
        </mxCell>
        <mxCell id="OIUBVP9VXxcAG9u4YlGB-162" style="edgeStyle=orthogonalEdgeStyle;rounded=0;orthogonalLoop=1;jettySize=auto;html=1;exitX=0;exitY=0.5;exitDx=0;exitDy=0;" edge="1" parent="1" source="OIUBVP9VXxcAG9u4YlGB-90" target="OIUBVP9VXxcAG9u4YlGB-108">
          <mxGeometry relative="1" as="geometry" />
        </mxCell>
        <mxCell id="OIUBVP9VXxcAG9u4YlGB-166" style="edgeStyle=orthogonalEdgeStyle;rounded=0;orthogonalLoop=1;jettySize=auto;html=1;exitX=0;exitY=0.5;exitDx=0;exitDy=0;entryX=1;entryY=0.5;entryDx=0;entryDy=0;" edge="1" parent="1" source="OIUBVP9VXxcAG9u4YlGB-134" target="OIUBVP9VXxcAG9u4YlGB-130">
          <mxGeometry relative="1" as="geometry" />
        </mxCell>
        <mxCell id="OIUBVP9VXxcAG9u4YlGB-167" style="edgeStyle=orthogonalEdgeStyle;rounded=0;orthogonalLoop=1;jettySize=auto;html=1;exitX=0;exitY=0.5;exitDx=0;exitDy=0;entryX=1;entryY=0.5;entryDx=0;entryDy=0;" edge="1" parent="1" source="OIUBVP9VXxcAG9u4YlGB-142" target="OIUBVP9VXxcAG9u4YlGB-138">
          <mxGeometry relative="1" as="geometry" />
        </mxCell>
        <mxCell id="OIUBVP9VXxcAG9u4YlGB-168" value="" style="endArrow=none;html=1;rounded=0;entryX=0.493;entryY=1.132;entryDx=0;entryDy=0;entryPerimeter=0;exitX=0.5;exitY=0;exitDx=0;exitDy=0;" edge="1" parent="1" source="OIUBVP9VXxcAG9u4YlGB-89" target="OIUBVP9VXxcAG9u4YlGB-140">
          <mxGeometry width="50" height="50" relative="1" as="geometry">
            <mxPoint x="190" y="1050" as="sourcePoint" />
            <mxPoint x="240" y="1000" as="targetPoint" />
          </mxGeometry>
        </mxCell>
        <mxCell id="OIUBVP9VXxcAG9u4YlGB-169" value="" style="endArrow=none;html=1;rounded=0;entryX=0.498;entryY=1.088;entryDx=0;entryDy=0;entryPerimeter=0;exitX=0.5;exitY=0;exitDx=0;exitDy=0;" edge="1" parent="1" source="OIUBVP9VXxcAG9u4YlGB-89" target="OIUBVP9VXxcAG9u4YlGB-144">
          <mxGeometry width="50" height="50" relative="1" as="geometry">
            <mxPoint x="-470" y="920" as="sourcePoint" />
            <mxPoint x="-371" y="779" as="targetPoint" />
          </mxGeometry>
        </mxCell>
        <mxCell id="OIUBVP9VXxcAG9u4YlGB-170" value="" style="endArrow=none;html=1;rounded=0;entryX=0.5;entryY=0;entryDx=0;entryDy=0;exitX=0.482;exitY=0.989;exitDx=0;exitDy=0;exitPerimeter=0;" edge="1" parent="1" source="OIUBVP9VXxcAG9u4YlGB-92" target="OIUBVP9VXxcAG9u4YlGB-145">
          <mxGeometry width="50" height="50" relative="1" as="geometry">
            <mxPoint x="-460" y="930" as="sourcePoint" />
            <mxPoint x="-361" y="789" as="targetPoint" />
          </mxGeometry>
        </mxCell>
        <mxCell id="OIUBVP9VXxcAG9u4YlGB-171" value="" style="endArrow=none;html=1;rounded=0;entryX=0.5;entryY=0;entryDx=0;entryDy=0;exitX=0.475;exitY=1.121;exitDx=0;exitDy=0;exitPerimeter=0;" edge="1" parent="1" source="OIUBVP9VXxcAG9u4YlGB-92" target="OIUBVP9VXxcAG9u4YlGB-149">
          <mxGeometry width="50" height="50" relative="1" as="geometry">
            <mxPoint x="-450" y="940" as="sourcePoint" />
            <mxPoint x="-351" y="799" as="targetPoint" />
          </mxGeometry>
        </mxCell>
        <mxCell id="OIUBVP9VXxcAG9u4YlGB-172" value="" style="endArrow=none;html=1;rounded=0;entryX=0.5;entryY=0;entryDx=0;entryDy=0;exitX=0.489;exitY=1.165;exitDx=0;exitDy=0;exitPerimeter=0;" edge="1" parent="1" source="OIUBVP9VXxcAG9u4YlGB-92" target="OIUBVP9VXxcAG9u4YlGB-153">
          <mxGeometry width="50" height="50" relative="1" as="geometry">
            <mxPoint x="-440" y="950" as="sourcePoint" />
            <mxPoint x="-341" y="809" as="targetPoint" />
          </mxGeometry>
        </mxCell>
        <mxCell id="OIUBVP9VXxcAG9u4YlGB-173" style="edgeStyle=orthogonalEdgeStyle;rounded=0;orthogonalLoop=1;jettySize=auto;html=1;exitX=0;exitY=0.5;exitDx=0;exitDy=0;entryX=1;entryY=0.5;entryDx=0;entryDy=0;" edge="1" parent="1" source="OIUBVP9VXxcAG9u4YlGB-130" target="OIUBVP9VXxcAG9u4YlGB-126">
          <mxGeometry relative="1" as="geometry" />
        </mxCell>
        <mxCell id="OIUBVP9VXxcAG9u4YlGB-174" style="edgeStyle=orthogonalEdgeStyle;rounded=0;orthogonalLoop=1;jettySize=auto;html=1;exitX=0;exitY=0.5;exitDx=0;exitDy=0;entryX=1;entryY=0.5;entryDx=0;entryDy=0;" edge="1" parent="1" source="OIUBVP9VXxcAG9u4YlGB-126" target="OIUBVP9VXxcAG9u4YlGB-122">
          <mxGeometry relative="1" as="geometry" />
        </mxCell>
        <mxCell id="OIUBVP9VXxcAG9u4YlGB-175" style="edgeStyle=orthogonalEdgeStyle;rounded=0;orthogonalLoop=1;jettySize=auto;html=1;exitX=0;exitY=0.5;exitDx=0;exitDy=0;entryX=1;entryY=0.5;entryDx=0;entryDy=0;" edge="1" parent="1" source="OIUBVP9VXxcAG9u4YlGB-122" target="OIUBVP9VXxcAG9u4YlGB-90">
          <mxGeometry relative="1" as="geometry" />
        </mxCell>
        <mxCell id="OIUBVP9VXxcAG9u4YlGB-178" value="" style="rounded=0;whiteSpace=wrap;html=1;" vertex="1" parent="1">
          <mxGeometry x="490" y="907" width="120" height="60" as="geometry" />
        </mxCell>
        <mxCell id="OIUBVP9VXxcAG9u4YlGB-179" value="" style="rounded=0;whiteSpace=wrap;html=1;" vertex="1" parent="1">
          <mxGeometry x="490" y="800" width="120" height="60" as="geometry" />
        </mxCell>
        <mxCell id="OIUBVP9VXxcAG9u4YlGB-180" value="" style="rounded=0;whiteSpace=wrap;html=1;" vertex="1" parent="1">
          <mxGeometry x="497" y="693" width="120" height="60" as="geometry" />
        </mxCell>
        <mxCell id="OIUBVP9VXxcAG9u4YlGB-181" value="" style="rounded=0;whiteSpace=wrap;html=1;" vertex="1" parent="1">
          <mxGeometry x="870" y="650" width="120" height="60" as="geometry" />
        </mxCell>
        <mxCell id="OIUBVP9VXxcAG9u4YlGB-182" value="" style="rounded=0;whiteSpace=wrap;html=1;" vertex="1" parent="1">
          <mxGeometry x="1130" y="640" width="120" height="60" as="geometry" />
        </mxCell>
        <mxCell id="OIUBVP9VXxcAG9u4YlGB-183" value="" style="rounded=0;whiteSpace=wrap;html=1;" vertex="1" parent="1">
          <mxGeometry x="950" y="850" width="120" height="60" as="geometry" />
        </mxCell>
        <mxCell id="OIUBVP9VXxcAG9u4YlGB-184" value="" style="rounded=0;whiteSpace=wrap;html=1;" vertex="1" parent="1">
          <mxGeometry x="1181" y="860" width="120" height="60" as="geometry" />
        </mxCell>
        <mxCell id="OIUBVP9VXxcAG9u4YlGB-185" value="" style="rounded=0;whiteSpace=wrap;html=1;" vertex="1" parent="1">
          <mxGeometry x="1460" y="860" width="120" height="60" as="geometry" />
        </mxCell>
        <mxCell id="OIUBVP9VXxcAG9u4YlGB-186" value="" style="rounded=0;whiteSpace=wrap;html=1;" vertex="1" parent="1">
          <mxGeometry x="497" y="1016" width="120" height="60" as="geometry" />
        </mxCell>
        <mxCell id="OIUBVP9VXxcAG9u4YlGB-187" value="" style="rounded=0;whiteSpace=wrap;html=1;" vertex="1" parent="1">
          <mxGeometry x="510" y="1140" width="120" height="60" as="geometry" />
        </mxCell>
        <mxCell id="OIUBVP9VXxcAG9u4YlGB-188" value="" style="rounded=0;whiteSpace=wrap;html=1;" vertex="1" parent="1">
          <mxGeometry x="730" y="870" width="120" height="60" as="geometry" />
        </mxCell>
        <mxCell id="OIUBVP9VXxcAG9u4YlGB-189" value="" style="rounded=0;whiteSpace=wrap;html=1;" vertex="1" parent="1">
          <mxGeometry x="770" y="1070" width="120" height="60" as="geometry" />
        </mxCell>
        <mxCell id="OIUBVP9VXxcAG9u4YlGB-190" value="" style="rounded=0;whiteSpace=wrap;html=1;" vertex="1" parent="1">
          <mxGeometry x="970" y="1070" width="120" height="60" as="geometry" />
        </mxCell>
        <mxCell id="OIUBVP9VXxcAG9u4YlGB-191" value="" style="rounded=0;whiteSpace=wrap;html=1;" vertex="1" parent="1">
          <mxGeometry x="1160" y="1060" width="120" height="60" as="geometry" />
        </mxCell>
      </root>
    </mxGraphModel>
  </diagram>
</mxfile>
